<svg xmlns="http://www.w3.org/2000/svg" xmlns:xlink="http://www.w3.org/1999/xlink" width="1630" height="841.56"><rect width="1630" height="841.56" rx="5" ry="5" class="a"/><svg y="0%" x="0%"><circle cx="20" cy="20" r="6" fill="#ff5f58"/><circle cx="40" cy="20" r="6" fill="#ffbd2e"/><circle cx="60" cy="20" r="6" fill="#18c132"/></svg><svg height="781.56" viewBox="0 0 159 78.156" width="1590" x="15" xmlns="http://www.w3.org/2000/svg" xmlns:xlink="http://www.w3.org/1999/xlink" y="50"><style>@keyframes s{0%{transform:translateX(0)}1.8%{transform:translateX(-159px)}2.1%{transform:translateX(-477px)}10.5%{transform:translateX(-636px)}13.1%{transform:translateX(-795px)}14.8%{transform:translateX(-954px)}16.2%{transform:translateX(-1113px)}19.2%{transform:translateX(-1272px)}20.9%{transform:translateX(-1431px)}22%{transform:translateX(-1590px)}25.2%{transform:translateX(-1749px)}25.6%{transform:translateX(-1908px)}28.1%{transform:translateX(-2067px)}29.6%{transform:translateX(-2226px)}31.4%{transform:translateX(-2385px)}32.5%{transform:translateX(-2544px)}34.8%{transform:translateX(-2862px)}35.8%{transform:translateX(-3021px)}42.3%{transform:translateX(-3180px)}44.4%{transform:translateX(-3339px)}46.5%{transform:translateX(-3498px)}47.8%{transform:translateX(-3657px)}49.8%{transform:translateX(-3816px)}51.8%{transform:translateX(-4293px)}58.8%{transform:translateX(-4611px)}59.4%{transform:translateX(-4770px)}60%{transform:translateX(-4929px)}60.6%{transform:translateX(-5088px)}61.6%{transform:translateX(-5247px)}62.2%{transform:translateX(-5406px)}62.8%{transform:translateX(-5565px)}63.4%{transform:translateX(-5724px)}64%{transform:translateX(-5883px)}64.6%{transform:translateX(-6042px)}65.2%{transform:translateX(-6201px)}65.8%{transform:translateX(-6360px)}66.4%{transform:translateX(-6519px)}66.8%{transform:translateX(-6678px)}67.2%{transform:translateX(-6837px)}67.5%{transform:translateX(-7155px)}68.1%{transform:translateX(-7473px)}68.3%{transform:translateX(-7791px)}to{transform:translateX(-7950px)}}.a{fill:#282d35}.f,.g,.h,.i{fill:#a8cc8c;font-weight:700}.g,.h,.i{fill:#66c2cd}.h,.i{fill:#71bef2}.i{fill:#e88388}.j{fill:#b9c0cb}.k{fill:#6f7783}.l{fill:#71bef2}.m{fill:#d290e4}.n{fill:#dbab79}.o{fill:#b9bfca}.p{fill:#73bef3}</style><g font-size="1.67" font-family="Monaco,Consolas,Menlo,'Bitstream Vera Sans Mono','Powerline Symbols',monospace"><defs><symbol id="1"><text y="1.67" class="f">➜</text><text x="3.006" y="1.67" class="g">onildoaguiar-card</text><text x="21.042" y="1.67" class="h">git:(</text><text x="26.052" y="1.67" class="i">master</text><text x="32.064" y="1.67" class="h">)</text></symbol><symbol id="2"><text y="1.67" class="f">➜</text><text x="3.006" y="1.67" class="g">onildoaguiar-card</text><text x="21.042" y="1.67" class="h">git:(</text><text x="26.052" y="1.67" class="i">master</text><text x="32.064" y="1.67" class="h">)</text><text x="34.068" y="1.67" class="j">npx</text></symbol><symbol id="3"><text y="1.67" class="f">➜</text><text x="3.006" y="1.67" class="g">onildoaguiar-card</text><text x="21.042" y="1.67" class="h">git:(</text><text x="26.052" y="1.67" class="i">master</text><text x="32.064" y="1.67" class="h">)</text><text x="34.068" y="1.67" class="j">npx</text><text x="38.076" y="1.67" class="j">onildoaguiar-card</text></symbol><symbol id="4"><text y="1.67" class="j">⸨</text><path class="j" d="M1.002 0h7v2.171h-7z"/><text x="1.002" y="1.67" class="a"></text><text x="8.016" y="1.67" class="k">░░░░░░░░░░░</text><text x="19.038" y="1.67" class="j">⸩</text><text x="21.042" y="1.67" class="j">⠹</text><text x="23.046" y="1.67" class="j">extract:onildoaguiar-card:</text>0<text x="50.1" y="1.67" class="l">verb</text><text x="55.11" y="1.67" class="m">lock</text><text x="60.12" y="1.67" class="j">using</text><text x="66.132" y="1.67" class="j">/Users/onildoaguiar/.npm/_locks/staging-4c6fd5973ccf5c73.lock</text><text x="128.256" y="1.67" class="j">for</text><text x="132.264" y="1.67" class="j">/Users/onildoaguiar/.npm/_</text></symbol><symbol id="5"><text y="1.67" class="j">⸨</text><path class="j" d="M1.002 0h12v2.171h-12z"/><text x="1.002" y="1.67" class="a"></text><text x="13.026" y="1.67" class="k">░░░░░░</text><text x="19.038" y="1.67" class="j">⸩</text><text x="21.042" y="1.67" class="j">⠹</text><text x="23.046" y="1.67" class="j">refresh-package-json:ansi-regex:</text><path class="j" d="M56.112 0h4v2.171h-4z"/><text x="56.112" y="1.67" class="a">sill</text><text x="61.122" y="1.67" class="m">finalize</text><text x="70.14" y="1.67" class="j">/Users/onildoaguiar/.npm/_npx/15351/lib/node_modules/onildoaguiar-card/node_modules/ansi</text></symbol><symbol id="6"><text y="1.67" class="j">npx:</text><text x="5.01" y="1.67" class="j">installed</text><text x="15.03" y="1.67" class="j">38</text><text x="18.036" y="1.67" class="j">in</text><text x="21.042" y="1.67" class="j">1.256s</text></symbol><symbol id="7"><text x="3.006" y="1.67" class="n">┌───────────────────────────────────────────────────────┐</text></symbol><symbol id="8"><text x="3.006" y="1.67" class="n">│</text><text x="59.118" y="1.67" class="n">│</text></symbol><symbol id="9"><text x="3.006" y="1.67" class="n">│</text><text x="7.014" y="1.67" class="o">Onildo</text><text x="14.028" y="1.67" class="o">Aguiar</text><text x="21.042" y="1.67" class="o">/</text><text x="23.046" y="1.67" class="p">Drizzle</text><text x="31.062" y="1.67" class="p">Land</text><text x="36.072" y="1.67" class="p">Studios</text><text x="59.118" y="1.67" class="n">│</text></symbol><symbol id="10"><text x="3.006" y="1.67" class="n">│</text><text x="13.026" y="1.67" class="o">Work:</text><text x="20.04" y="1.67" class="o">Full</text><text x="25.05" y="1.67" class="o">Stack</text><text x="31.062" y="1.67" class="o">Developer</text><text x="59.118" y="1.67" class="n">│</text></symbol><symbol id="11"><text x="3.006" y="1.67" class="n">│</text><text x="10.02" y="1.67" class="o">Twitter:</text><text x="20.04" y="1.67" class="p">https://twitter.com/onildoaguiar</text><text x="59.118" y="1.67" class="n">│</text></symbol><symbol id="12"><text x="3.006" y="1.67" class="n">│</text><text x="11.022" y="1.67" class="o">GitHub:</text><text x="20.04" y="1.67" class="p">https://github.com/onildoaguiar</text><text x="59.118" y="1.67" class="n">│</text></symbol><symbol id="13"><text x="3.006" y="1.67" class="n">│</text><text x="14.028" y="1.67" class="o">NPM:</text><text x="20.04" y="1.67" class="p">https://www.npmjs.com/~onildoaguiar</text><text x="59.118" y="1.67" class="n">│</text></symbol><symbol id="14"><text x="3.006" y="1.67" class="n">│</text><text x="9.018" y="1.67" class="o">LinkedIn:</text><text x="20.04" y="1.67" class="p">https://linkedin.com/in/onildoaguiar</text><text x="59.118" y="1.67" class="n">│</text></symbol><symbol id="15"><text x="3.006" y="1.67" class="n">│</text><text x="14.028" y="1.67" class="o">Web:</text><text x="20.04" y="1.67" class="p">https://onildoaguiar.com</text><text x="59.118" y="1.67" class="n">│</text></symbol><symbol id="16"><text x="3.006" y="1.67" class="n">│</text><text x="13.026" y="1.67" class="o">Card:</text><text x="20.04" y="1.67" class="o">npx</text><text x="24.048" y="1.67" class="o">onildoaguiar-card</text><text x="59.118" y="1.67" class="n">│</text></symbol><symbol id="17"><text x="3.006" y="1.67" class="n">└───────────────────────────────────────────────────────┘</text></symbol><symbol id="a"><path fill="transparent" d="M0 0h159v36H0z"/></symbol><symbol id="b"><path fill="#6f7683" d="M0 0h1.102v2.171H0z"/></symbol></defs><path class="a" d="M0 0h159v78.156H0z"/><g style="animation-duration:8.57301s;animation-iteration-count:infinite;animation-name:s;animation-timing-function:steps(1,end)"><svg width="8109"><svg><use xlink:href="#a"/><use xlink:href="#b" x="-.004"/></svg><svg x="159"><use xlink:href="#a"/><use xlink:href="#b" x="-.004"/></svg><svg x="318"><use xlink:href="#a"/><use xlink:href="#b" x="33.996"/><use xlink:href="#1"/></svg><svg x="477"><use xlink:href="#a"/><use xlink:href="#b" x="33.996"/><use xlink:href="#1"/></svg><svg x="636"><use xlink:href="#a"/><use xlink:href="#b" x="34.996"/><text y="1.67" class="f">➜</text><text x="3.006" y="1.67" class="g">onildoaguiar-card</text><text x="21.042" y="1.67" class="h">git:(</text><text x="26.052" y="1.67" class="i">master</text><text x="32.064" y="1.67" class="h">)</text><text x="34.068" y="1.67" class="j">n</text></svg><svg x="795"><use xlink:href="#a"/><use xlink:href="#b" x="35.996"/><text y="1.67" class="f">➜</text><text x="3.006" y="1.67" class="g">onildoaguiar-card</text><text x="21.042" y="1.67" class="h">git:(</text><text x="26.052" y="1.67" class="i">master</text><text x="32.064" y="1.67" class="h">)</text><text x="34.068" y="1.67" class="j">np</text></svg><svg x="954"><use xlink:href="#a"/><use xlink:href="#b" x="36.996"/><use xlink:href="#2"/></svg><svg x="1113"><use xlink:href="#a"/><use xlink:href="#b" x="37.996"/><use xlink:href="#2"/></svg><svg x="1272"><use xlink:href="#a"/><use xlink:href="#b" x="38.996"/><text y="1.67" class="f">➜</text><text x="3.006" y="1.67" class="g">onildoaguiar-card</text><text x="21.042" y="1.67" class="h">git:(</text><text x="26.052" y="1.67" class="i">master</text><text x="32.064" y="1.67" class="h">)</text><text x="34.068" y="1.67" class="j">npx</text><text x="38.076" y="1.67" class="j">o</text></svg><svg x="1431"><use xlink:href="#a"/><use xlink:href="#b" x="39.996"/><text y="1.67" class="f">➜</text><text x="3.006" y="1.67" class="g">onildoaguiar-card</text><text x="21.042" y="1.67" class="h">git:(</text><text x="26.052" y="1.67" class="i">master</text><text x="32.064" y="1.67" class="h">)</text><text x="34.068" y="1.67" class="j">npx</text><text x="38.076" y="1.67" class="j">on</text></svg><svg x="1590"><use xlink:href="#a"/><use xlink:href="#b" x="40.996"/><text y="1.67" class="f">➜</text><text x="3.006" y="1.67" class="g">onildoaguiar-card</text><text x="21.042" y="1.67" class="h">git:(</text><text x="26.052" y="1.67" class="i">master</text><text x="32.064" y="1.67" class="h">)</text><text x="34.068" y="1.67" class="j">npx</text><text x="38.076" y="1.67" class="j">oni</text></svg><svg x="1749"><use xlink:href="#a"/><use xlink:href="#b" x="41.996"/><text y="1.67" class="f">➜</text><text x="3.006" y="1.67" class="g">onildoaguiar-card</text><text x="21.042" y="1.67" class="h">git:(</text><text x="26.052" y="1.67" class="i">master</text><text x="32.064" y="1.67" class="h">)</text><text x="34.068" y="1.67" class="j">npx</text><text x="38.076" y="1.67" class="j">onil</text></svg><svg x="1908"><use xlink:href="#a"/><use xlink:href="#b" x="42.996"/><text y="1.67" class="f">➜</text><text x="3.006" y="1.67" class="g">onildoaguiar-card</text><text x="21.042" y="1.67" class="h">git:(</text><text x="26.052" y="1.67" class="i">master</text><text x="32.064" y="1.67" class="h">)</text><text x="34.068" y="1.67" class="j">npx</text><text x="38.076" y="1.67" class="j">onild</text></svg><svg x="2067"><use xlink:href="#a"/><use xlink:href="#b" x="43.996"/><text y="1.67" class="f">➜</text><text x="3.006" y="1.67" class="g">onildoaguiar-card</text><text x="21.042" y="1.67" class="h">git:(</text><text x="26.052" y="1.67" class="i">master</text><text x="32.064" y="1.67" class="h">)</text><text x="34.068" y="1.67" class="j">npx</text><text x="38.076" y="1.67" class="j">onildo</text></svg><svg x="2226"><use xlink:href="#a"/><use xlink:href="#b" x="44.996"/><text y="1.67" class="f">➜</text><text x="3.006" y="1.67" class="g">onildoaguiar-card</text><text x="21.042" y="1.67" class="h">git:(</text><text x="26.052" y="1.67" class="i">master</text><text x="32.064" y="1.67" class="h">)</text><text x="34.068" y="1.67" class="j">npx</text><text x="38.076" y="1.67" class="j">onildoa</text></svg><svg x="2385"><use xlink:href="#a"/><use xlink:href="#b" x="45.996"/><text y="1.67" class="f">➜</text><text x="3.006" y="1.67" class="g">onildoaguiar-card</text><text x="21.042" y="1.67" class="h">git:(</text><text x="26.052" y="1.67" class="i">master</text><text x="32.064" y="1.67" class="h">)</text><text x="34.068" y="1.67" class="j">npx</text><text x="38.076" y="1.67" class="j">onildoag</text></svg><svg x="2544"><use xlink:href="#a"/><use xlink:href="#b" x="46.996"/><text y="1.67" class="f">➜</text><text x="3.006" y="1.67" class="g">onildoaguiar-card</text><text x="21.042" y="1.67" class="h">git:(</text><text x="26.052" y="1.67" class="i">master</text><text x="32.064" y="1.67" class="h">)</text><text x="34.068" y="1.67" class="j">npx</text><text x="38.076" y="1.67" class="j">onildoagu</text></svg><svg x="2703"><use xlink:href="#a"/><use xlink:href="#b" x="47.996"/><text y="1.67" class="f">➜</text><text x="3.006" y="1.67" class="g">onildoaguiar-card</text><text x="21.042" y="1.67" class="h">git:(</text><text x="26.052" y="1.67" class="i">master</text><text x="32.064" y="1.67" class="h">)</text><text x="34.068" y="1.67" class="j">npx</text><text x="38.076" y="1.67" class="j">onildoagui</text></svg><svg x="2862"><use xlink:href="#a"/><use xlink:href="#b" x="48.996"/><text y="1.67" class="f">➜</text><text x="3.006" y="1.67" class="g">onildoaguiar-card</text><text x="21.042" y="1.67" class="h">git:(</text><text x="26.052" y="1.67" class="i">master</text><text x="32.064" y="1.67" class="h">)</text><text x="34.068" y="1.67" class="j">npx</text><text x="38.076" y="1.67" class="j">onildoaguia</text></svg><svg x="3021"><use xlink:href="#a"/><use xlink:href="#b" x="49.996"/><text y="1.67" class="f">➜</text><text x="3.006" y="1.67" class="g">onildoaguiar-card</text><text x="21.042" y="1.67" class="h">git:(</text><text x="26.052" y="1.67" class="i">master</text><text x="32.064" y="1.67" class="h">)</text><text x="34.068" y="1.67" class="j">npx</text><text x="38.076" y="1.67" class="j">onildoaguiar</text></svg><svg x="3180"><use xlink:href="#a"/><use xlink:href="#b" x="50.996"/><text y="1.67" class="f">➜</text><text x="3.006" y="1.67" class="g">onildoaguiar-card</text><text x="21.042" y="1.67" class="h">git:(</text><text x="26.052" y="1.67" class="i">master</text><text x="32.064" y="1.67" class="h">)</text><text x="34.068" y="1.67" class="j">npx</text><text x="38.076" y="1.67" class="j">onildoaguiar-</text></svg><svg x="3339"><use xlink:href="#a"/><use xlink:href="#b" x="51.996"/><text y="1.67" class="f">➜</text><text x="3.006" y="1.67" class="g">onildoaguiar-card</text><text x="21.042" y="1.67" class="h">git:(</text><text x="26.052" y="1.67" class="i">master</text><text x="32.064" y="1.67" class="h">)</text><text x="34.068" y="1.67" class="j">npx</text><text x="38.076" y="1.67" class="j">onildoaguiar-c</text></svg><svg x="3498"><use xlink:href="#a"/><use xlink:href="#b" x="52.996"/><text y="1.67" class="f">➜</text><text x="3.006" y="1.67" class="g">onildoaguiar-card</text><text x="21.042" y="1.67" class="h">git:(</text><text x="26.052" y="1.67" class="i">master</text><text x="32.064" y="1.67" class="h">)</text><text x="34.068" y="1.67" class="j">npx</text><text x="38.076" y="1.67" class="j">onildoaguiar-ca</text></svg><svg x="3657"><use xlink:href="#a"/><use xlink:href="#b" x="53.996"/><text y="1.67" class="f">➜</text><text x="3.006" y="1.67" class="g">onildoaguiar-card</text><text x="21.042" y="1.67" class="h">git:(</text><text x="26.052" y="1.67" class="i">master</text><text x="32.064" y="1.67" class="h">)</text><text x="34.068" y="1.67" class="j">npx</text><text x="38.076" y="1.67" class="j">onildoaguiar-car</text></svg><svg x="3816"><use xlink:href="#a"/><use xlink:href="#b" x="54.996"/><use xlink:href="#3"/></svg><svg x="3975"><use xlink:href="#a"/><use xlink:href="#b" x="54.996"/><use xlink:href="#3"/></svg><svg x="4134"><use xlink:href="#a"/><use xlink:href="#b" x="-.004" y="2.146"/><use xlink:href="#3"/></svg><svg x="4293"><use xlink:href="#a"/><use xlink:href="#b" x="-.004" y="2.146"/><use xlink:href="#3"/></svg><svg x="4452"><use xlink:href="#a"/><use xlink:href="#3"/></svg><svg x="4611"><use xlink:href="#a"/><use xlink:href="#3"/><text y="3.841" class="j">⸨</text><text x="1.002" y="3.841" class="k">░░░░░░░░░░░░░░░░░░</text><text x="19.038" y="3.841" class="j">⸩</text><text x="21.042" y="3.841" class="j">⠧</text><text x="23.046" y="3.841" class="j">rollbackFailedOptional:</text>0<text x="47.094" y="3.841" class="l">verb</text><text x="52.104" y="3.841" class="m">npm-session</text><text x="64.128" y="3.841" class="j">59ecd344de949ea6</text></svg><svg x="4770"><use xlink:href="#a"/><use xlink:href="#3"/><text y="3.841" class="j">⸨</text><text x="1.002" y="3.841" class="k">░░░░░░░░░░░░░░░░░░</text><text x="19.038" y="3.841" class="j">⸩</text><text x="21.042" y="3.841" class="j">⠋</text><text x="23.046" y="3.841" class="j">fetchMetadata:</text><path class="j" d="M38.076 2.171h4v2.171h-4z"/><text x="38.076" y="3.841" class="a">sill</text><text x="43.086" y="3.841" class="m">resolveWithNewModule</text><text x="64.128" y="3.841" class="j">boxen@2.1.0</text><text x="76.152" y="3.841" class="j">checking</text><text x="85.17" y="3.841" class="j">installable</text><text x="97.194" y="3.841" class="j">status</text></svg><svg x="4929"><use xlink:href="#a"/><use xlink:href="#3"/><text y="3.841" class="j">⸨</text><text x="1.002" y="3.841" class="k">░░░░░░░░░░░░░░░░░░</text><text x="19.038" y="3.841" class="j">⸩</text><text x="21.042" y="3.841" class="j">⠹</text><text x="23.046" y="3.841" class="j">fetchMetadata:</text><path class="j" d="M38.076 2.171h4v2.171h-4z"/><text x="38.076" y="3.841" class="a">sill</text><text x="43.086" y="3.841" class="m">resolveWithNewModule</text><text x="64.128" y="3.841" class="j">color-convert@1.9.3</text><text x="84.168" y="3.841" class="j">checking</text><text x="93.186" y="3.841" class="j">installable</text><text x="105.21" y="3.841" class="j">status</text></svg><svg x="5088"><use xlink:href="#a"/><use xlink:href="#3"/><text y="3.841" class="j">⸨</text><path class="j" d="M1.002 2.171h1v2.171h-1z"/><text x="1.002" y="3.841" class="a"></text><text x="2.004" y="3.841" class="k">░░░░░░░░░░░░░░░░░</text><text x="19.038" y="3.841" class="j">⸩</text><text x="21.042" y="3.841" class="j">⠙</text><text x="23.046" y="3.841" class="j">fetchMetadata:</text><path class="j" d="M38.076 2.171h4v2.171h-4z"/><text x="38.076" y="3.841" class="a">sill</text><text x="43.086" y="3.841" class="m">resolveWithNewModule</text><text x="64.128" y="3.841" class="j">lru-cache@4.1.5</text><text x="80.16" y="3.841" class="j">checking</text><text x="89.178" y="3.841" class="j">installable</text><text x="101.202" y="3.841" class="j">status</text></svg><svg x="5247"><use xlink:href="#a"/><use xlink:href="#3"/><use xlink:href="#4" y="2.171"/></svg><svg x="5406"><use xlink:href="#a"/><use xlink:href="#3"/><use xlink:href="#4" y="2.171"/></svg><svg x="5565"><use xlink:href="#a"/><use xlink:href="#3"/><use xlink:href="#4" y="2.171"/></svg><svg x="5724"><use xlink:href="#a"/><use xlink:href="#3"/><use xlink:href="#4" y="2.171"/></svg><svg x="5883"><use xlink:href="#a"/><use xlink:href="#3"/><use xlink:href="#4" y="2.171"/></svg><svg x="6042"><use xlink:href="#a"/><use xlink:href="#3"/><text y="3.841" class="j">⸨</text><path class="j" d="M1.002 2.171h8v2.171h-8z"/><text x="1.002" y="3.841" class="a"></text><text x="9.018" y="3.841" class="k">░░░░░░░░░░</text><text x="19.038" y="3.841" class="j">⸩</text><text x="21.042" y="3.841" class="j">⠹</text><text x="23.046" y="3.841" class="j">extract:cli-boxes:</text><path class="j" d="M42.084 2.171h4v2.171h-4z"/><text x="42.084" y="3.841" class="a">sill</text><text x="47.094" y="3.841" class="m">extract</text><text x="55.11" y="3.841" class="j">onildoaguiar-card@1.0.1</text></svg><svg x="6201"><use xlink:href="#a"/><use xlink:href="#3"/><text y="3.841" class="j">⸨</text><path class="j" d="M1.002 2.171h12v2.171h-12z"/><text x="1.002" y="3.841" class="a"></text><text x="13.026" y="3.841" class="k">░░░░░░</text><text x="19.038" y="3.841" class="j">⸩</text><text x="21.042" y="3.841" class="j">⠋</text><text x="23.046" y="3.841" class="j">finalize:execa:</text><path class="j" d="M39.078 2.171h4v2.171h-4z"/><text x="39.078" y="3.841" class="a">sill</text><text x="44.088" y="3.841" class="m">finalize</text><text x="53.106" y="3.841" class="j">/Users/onildoaguiar/.npm/_npx/15351/lib/node_modules/onildoaguiar-card/node_modules/execa</text></svg><svg x="6360"><use xlink:href="#a"/><use xlink:href="#3"/><use xlink:href="#5" y="2.171"/></svg><svg x="6519"><use xlink:href="#a"/><use xlink:href="#3"/><use xlink:href="#5" y="2.171"/></svg><svg x="6678"><use xlink:href="#a"/><use xlink:href="#b" x="-.004" y="2.146"/><use xlink:href="#3"/></svg><svg x="6837"><use xlink:href="#a"/><use xlink:href="#b" x="-.004" y="4.317"/><use xlink:href="#3"/><use xlink:href="#6" y="2.171"/></svg><svg x="6996"><use xlink:href="#a"/><use xlink:href="#b" x="-.004" y="28.198"/><use xlink:href="#3"/><use xlink:href="#6" y="2.171"/><use xlink:href="#7" y="6.513"/><use xlink:href="#8" y="8.684"/><use xlink:href="#9" y="10.855"/><use xlink:href="#8" y="13.026"/><use xlink:href="#10" y="15.197"/><use xlink:href="#11" y="17.368"/><use xlink:href="#12" y="19.539"/><use xlink:href="#13" y="21.71"/><use xlink:href="#14" y="23.881"/><use xlink:href="#15" y="26.052"/></svg><svg x="7155"><use xlink:href="#a"/><use xlink:href="#b" x="-.004" y="39.053"/><use xlink:href="#3"/><use xlink:href="#6" y="2.171"/><use xlink:href="#7" y="6.513"/><use xlink:href="#8" y="8.684"/><use xlink:href="#9" y="10.855"/><use xlink:href="#8" y="13.026"/><use xlink:href="#10" y="15.197"/><use xlink:href="#11" y="17.368"/><use xlink:href="#12" y="19.539"/><use xlink:href="#13" y="21.71"/><use xlink:href="#14" y="23.881"/><use xlink:href="#15" y="26.052"/><use xlink:href="#8" y="28.223"/><use xlink:href="#16" y="30.394"/><use xlink:href="#8" y="32.565"/><use xlink:href="#17" y="34.736"/></svg><svg x="7314"><use xlink:href="#a"/><use xlink:href="#b" x="-.004" y="39.053"/><use xlink:href="#3"/><use xlink:href="#6" y="2.171"/><use xlink:href="#7" y="6.513"/><use xlink:href="#8" y="8.684"/><use xlink:href="#9" y="10.855"/><use xlink:href="#8" y="13.026"/><use xlink:href="#10" y="15.197"/><use xlink:href="#11" y="17.368"/><use xlink:href="#12" y="19.539"/><use xlink:href="#13" y="21.71"/><use xlink:href="#14" y="23.881"/><use xlink:href="#15" y="26.052"/><use xlink:href="#8" y="28.223"/><use xlink:href="#16" y="30.394"/><use xlink:href="#8" y="32.565"/><use xlink:href="#17" y="34.736"/></svg><svg x="7473"><use xlink:href="#a"/><use xlink:href="#b" x="-.004" y="39.053"/><use xlink:href="#3"/><use xlink:href="#6" y="2.171"/><use xlink:href="#7" y="6.513"/><use xlink:href="#8" y="8.684"/><use xlink:href="#9" y="10.855"/><use xlink:href="#8" y="13.026"/><use xlink:href="#10" y="15.197"/><use xlink:href="#11" y="17.368"/><use xlink:href="#12" y="19.539"/><use xlink:href="#13" y="21.71"/><use xlink:href="#14" y="23.881"/><use xlink:href="#15" y="26.052"/><use xlink:href="#8" y="28.223"/><use xlink:href="#16" y="30.394"/><use xlink:href="#8" y="32.565"/><use xlink:href="#17" y="34.736"/></svg><svg x="7632"><use xlink:href="#a"/><use xlink:href="#b" x="33.996" y="39.053"/><use xlink:href="#3"/><use xlink:href="#6" y="2.171"/><use xlink:href="#7" y="6.513"/><use xlink:href="#8" y="8.684"/><use xlink:href="#9" y="10.855"/><use xlink:href="#8" y="13.026"/><use xlink:href="#10" y="15.197"/><use xlink:href="#11" y="17.368"/><use xlink:href="#12" y="19.539"/><use xlink:href="#13" y="21.71"/><use xlink:href="#14" y="23.881"/><use xlink:href="#15" y="26.052"/><use xlink:href="#8" y="28.223"/><use xlink:href="#16" y="30.394"/><use xlink:href="#8" y="32.565"/><use xlink:href="#17" y="34.736"/><use xlink:href="#1" y="39.078"/></svg><svg x="7791"><use xlink:href="#a"/><use xlink:href="#b" x="33.996" y="39.053"/><use xlink:href="#3"/><use xlink:href="#6" y="2.171"/><use xlink:href="#7" y="6.513"/><use xlink:href="#8" y="8.684"/><use xlink:href="#9" y="10.855"/><use xlink:href="#8" y="13.026"/><use xlink:href="#10" y="15.197"/><use xlink:href="#11" y="17.368"/><use xlink:href="#12" y="19.539"/><use xlink:href="#13" y="21.71"/><use xlink:href="#14" y="23.881"/><use xlink:href="#15" y="26.052"/><use xlink:href="#8" y="28.223"/><use xlink:href="#16" y="30.394"/><use xlink:href="#8" y="32.565"/><use xlink:href="#17" y="34.736"/><use xlink:href="#1" y="39.078"/></svg><svg x="7950"><use xlink:href="#a"/><use xlink:href="#b" x="-.004" y="41.224"/><use xlink:href="#3"/><use xlink:href="#6" y="2.171"/><use xlink:href="#7" y="6.513"/><use xlink:href="#8" y="8.684"/><use xlink:href="#9" y="10.855"/><use xlink:href="#8" y="13.026"/><use xlink:href="#10" y="15.197"/><use xlink:href="#11" y="17.368"/><use xlink:href="#12" y="19.539"/><use xlink:href="#13" y="21.71"/><use xlink:href="#14" y="23.881"/><use xlink:href="#15" y="26.052"/><use xlink:href="#8" y="28.223"/><use xlink:href="#16" y="30.394"/><use xlink:href="#8" y="32.565"/><use xlink:href="#17" y="34.736"/><use xlink:href="#1" y="39.078"/></svg></svg></g></g></svg></svg>