<svg xmlns="http://www.w3.org/2000/svg" xmlns:xlink="http://www.w3.org/1999/xlink" width="840" height="602.75"><rect width="840" height="602.75" rx="5" ry="5" class="a"/><svg y="0%" x="0%"><circle cx="20" cy="20" r="6" fill="#ff5f58"/><circle cx="40" cy="20" r="6" fill="#ffbd2e"/><circle cx="60" cy="20" r="6" fill="#18c132"/></svg><svg height="542.75" viewBox="0 0 80 54.275" width="800" x="15" xmlns="http://www.w3.org/2000/svg" xmlns:xlink="http://www.w3.org/1999/xlink" y="50"><style>@keyframes q{0%{transform:translateX(0)}1.7%{transform:translateX(-80px)}1.9%{transform:translateX(-240px)}11.8%{transform:translateX(-320px)}17.1%{transform:translateX(-400px)}18.3%{transform:translateX(-480px)}19.7%{transform:translateX(-560px)}21.1%{transform:translateX(-640px)}23.2%{transform:translateX(-720px)}24%{transform:translateX(-800px)}26.6%{transform:translateX(-880px)}27.7%{transform:translateX(-960px)}28.8%{transform:translateX(-1040px)}30.1%{transform:translateX(-1120px)}32.1%{transform:translateX(-1200px)}33.1%{transform:translateX(-1280px)}35.2%{transform:translateX(-1360px)}36%{transform:translateX(-1440px)}36.8%{transform:translateX(-1520px)}39.1%{transform:translateX(-1600px)}41.2%{transform:translateX(-1680px)}42.6%{transform:translateX(-1760px)}43.8%{transform:translateX(-1840px)}45.9%{transform:translateX(-1920px)}52.2%{transform:translateX(-2000px)}52.3%{transform:translateX(-2160px)}59%{transform:translateX(-2320px)}59.6%{transform:translateX(-2400px)}60.1%{transform:translateX(-2480px)}60.7%{transform:translateX(-2560px)}61.5%{transform:translateX(-2640px)}62%{transform:translateX(-2720px)}62.7%{transform:translateX(-2800px)}63.3%{transform:translateX(-2880px)}63.9%{transform:translateX(-2960px)}64.4%{transform:translateX(-3040px)}64.9%{transform:translateX(-3120px)}65.7%{transform:translateX(-3200px)}66.1%{transform:translateX(-3280px)}66.5%{transform:translateX(-3360px)}66.7%{transform:translateX(-3520px)}67.2%{transform:translateX(-3680px)}67.4%{transform:translateX(-3840px)}to{transform:translateX(-3920px)}}.a{fill:#282d35}.f,.g{fill:#a8cc8c;font-weight:700}.g{fill:#66c2cd}.h{fill:#b9c0cb}.i{fill:#6f7783}.j{fill:#71bef2}.k{fill:#d290e4}.l{fill:#dbab79}.m{fill:#b9bfca}.n{fill:#73bef3}</style><g font-size="1.67" font-family="Monaco,Consolas,Menlo,'Bitstream Vera Sans Mono','Powerline Symbols',monospace"><defs><symbol id="1"><text y="1.67" class="f">➜</text><text x="3.006" y="1.67" class="g">development</text></symbol><symbol id="2"><text y="1.67" class="f">➜</text><text x="3.006" y="1.67" class="g">development</text><text x="15.03" y="1.67" class="h">npx</text></symbol><symbol id="3"><text y="1.67" class="f">➜</text><text x="3.006" y="1.67" class="g">development</text><text x="15.03" y="1.67" class="h">npx</text><text x="19.038" y="1.67" class="h">onildoaguiar-card</text></symbol><symbol id="4"><text y="1.67" class="h">⸨</text><path class="h" d="M1.002 0h7v2.171h-7z"/><text x="1.002" y="1.67" class="a"></text><text x="8.016" y="1.67" class="i">░░░░░░░░░░░</text><text x="19.038" y="1.67" class="h">⸩</text><text x="21.042" y="1.67" class="h">⠹</text><text x="23.046" y="1.67" class="h">extract:onildoaguiar-card:</text>0<text x="50.1" y="1.67" class="j">verb</text><text x="55.11" y="1.67" class="k">lock</text><text x="60.12" y="1.67" class="h">using</text><text x="66.132" y="1.67" class="h">/Users/onildo</text></symbol><symbol id="5"><text y="1.67" class="h">npx:</text><text x="5.01" y="1.67" class="h">installed</text><text x="15.03" y="1.67" class="h">38</text><text x="18.036" y="1.67" class="h">in</text><text x="21.042" y="1.67" class="h">1.225s</text></symbol><symbol id="6"><text x="3.006" y="1.67" class="l">┌───────────────────────────────────────────────────────┐</text></symbol><symbol id="7"><text x="3.006" y="1.67" class="l">│</text><text x="59.118" y="1.67" class="l">│</text></symbol><symbol id="8"><text x="3.006" y="1.67" class="l">│</text><text x="7.014" y="1.67" class="m">Onildo</text><text x="14.028" y="1.67" class="m">Aguiar</text><text x="21.042" y="1.67" class="m">/</text><text x="23.046" y="1.67" class="n">Drizzle</text><text x="31.062" y="1.67" class="n">Land</text><text x="36.072" y="1.67" class="n">Studios</text><text x="59.118" y="1.67" class="l">│</text></symbol><symbol id="9"><text x="3.006" y="1.67" class="l">│</text><text x="13.026" y="1.67" class="m">Work:</text><text x="20.04" y="1.67" class="m">Full</text><text x="25.05" y="1.67" class="m">Stack</text><text x="31.062" y="1.67" class="m">Developer</text><text x="59.118" y="1.67" class="l">│</text></symbol><symbol id="10"><text x="3.006" y="1.67" class="l">│</text><text x="10.02" y="1.67" class="m">Twitter:</text><text x="20.04" y="1.67" class="n">https://twitter.com/onildoaguiar</text><text x="59.118" y="1.67" class="l">│</text></symbol><symbol id="11"><text x="3.006" y="1.67" class="l">│</text><text x="11.022" y="1.67" class="m">GitHub:</text><text x="20.04" y="1.67" class="n">https://github.com/onildoaguiar</text><text x="59.118" y="1.67" class="l">│</text></symbol><symbol id="12"><text x="3.006" y="1.67" class="l">│</text><text x="14.028" y="1.67" class="m">NPM:</text><text x="20.04" y="1.67" class="n">https://www.npmjs.com/~onildoaguiar</text><text x="59.118" y="1.67" class="l">│</text></symbol><symbol id="13"><text x="3.006" y="1.67" class="l">│</text><text x="9.018" y="1.67" class="m">LinkedIn:</text><text x="20.04" y="1.67" class="n">https://linkedin.com/in/onildoaguiar</text><text x="59.118" y="1.67" class="l">│</text></symbol><symbol id="14"><text x="3.006" y="1.67" class="l">│</text><text x="14.028" y="1.67" class="m">Web:</text><text x="20.04" y="1.67" class="n">https://onildoaguiar.com</text><text x="59.118" y="1.67" class="l">│</text></symbol><symbol id="15"><text x="3.006" y="1.67" class="l">│</text><text x="13.026" y="1.67" class="m">Card:</text><text x="20.04" y="1.67" class="m">npx</text><text x="24.048" y="1.67" class="m">onildoaguiar-card</text><text x="59.118" y="1.67" class="l">│</text></symbol><symbol id="16"><text x="3.006" y="1.67" class="l">└───────────────────────────────────────────────────────┘</text></symbol><symbol id="a"><path fill="transparent" d="M0 0h80v25H0z"/></symbol><symbol id="b"><path fill="#6f7683" d="M0 0h1.102v2.171H0z"/></symbol></defs><path class="a" d="M0 0h80v54.275H0z"/><g style="animation-duration:9.040078s;animation-iteration-count:infinite;animation-name:q;animation-timing-function:steps(1,end)"><svg width="4000"><svg><use xlink:href="#a"/><use xlink:href="#b" x="-.004"/></svg><svg x="80"><use xlink:href="#a"/><use xlink:href="#b" x="-.004"/></svg><svg x="160"><use xlink:href="#a"/><use xlink:href="#b" x="14.996"/><use xlink:href="#1"/></svg><svg x="240"><use xlink:href="#a"/><use xlink:href="#b" x="14.996"/><use xlink:href="#1"/></svg><svg x="320"><use xlink:href="#a"/><use xlink:href="#b" x="15.996"/><text y="1.67" class="f">➜</text><text x="3.006" y="1.67" class="g">development</text><text x="15.03" y="1.67" class="h">n</text></svg><svg x="400"><use xlink:href="#a"/><use xlink:href="#b" x="16.996"/><text y="1.67" class="f">➜</text><text x="3.006" y="1.67" class="g">development</text><text x="15.03" y="1.67" class="h">np</text></svg><svg x="480"><use xlink:href="#a"/><use xlink:href="#b" x="17.996"/><use xlink:href="#2"/></svg><svg x="560"><use xlink:href="#a"/><use xlink:href="#b" x="18.996"/><use xlink:href="#2"/></svg><svg x="640"><use xlink:href="#a"/><use xlink:href="#b" x="19.996"/><text y="1.67" class="f">➜</text><text x="3.006" y="1.67" class="g">development</text><text x="15.03" y="1.67" class="h">npx</text><text x="19.038" y="1.67" class="h">o</text></svg><svg x="720"><use xlink:href="#a"/><use xlink:href="#b" x="20.996"/><text y="1.67" class="f">➜</text><text x="3.006" y="1.67" class="g">development</text><text x="15.03" y="1.67" class="h">npx</text><text x="19.038" y="1.67" class="h">on</text></svg><svg x="800"><use xlink:href="#a"/><use xlink:href="#b" x="21.996"/><text y="1.67" class="f">➜</text><text x="3.006" y="1.67" class="g">development</text><text x="15.03" y="1.67" class="h">npx</text><text x="19.038" y="1.67" class="h">oni</text></svg><svg x="880"><use xlink:href="#a"/><use xlink:href="#b" x="22.996"/><text y="1.67" class="f">➜</text><text x="3.006" y="1.67" class="g">development</text><text x="15.03" y="1.67" class="h">npx</text><text x="19.038" y="1.67" class="h">onil</text></svg><svg x="960"><use xlink:href="#a"/><use xlink:href="#b" x="23.996"/><text y="1.67" class="f">➜</text><text x="3.006" y="1.67" class="g">development</text><text x="15.03" y="1.67" class="h">npx</text><text x="19.038" y="1.67" class="h">onild</text></svg><svg x="1040"><use xlink:href="#a"/><use xlink:href="#b" x="24.996"/><text y="1.67" class="f">➜</text><text x="3.006" y="1.67" class="g">development</text><text x="15.03" y="1.67" class="h">npx</text><text x="19.038" y="1.67" class="h">onildo</text></svg><svg x="1120"><use xlink:href="#a"/><use xlink:href="#b" x="25.996"/><text y="1.67" class="f">➜</text><text x="3.006" y="1.67" class="g">development</text><text x="15.03" y="1.67" class="h">npx</text><text x="19.038" y="1.67" class="h">onildoa</text></svg><svg x="1200"><use xlink:href="#a"/><use xlink:href="#b" x="26.996"/><text y="1.67" class="f">➜</text><text x="3.006" y="1.67" class="g">development</text><text x="15.03" y="1.67" class="h">npx</text><text x="19.038" y="1.67" class="h">onildoag</text></svg><svg x="1280"><use xlink:href="#a"/><use xlink:href="#b" x="27.996"/><text y="1.67" class="f">➜</text><text x="3.006" y="1.67" class="g">development</text><text x="15.03" y="1.67" class="h">npx</text><text x="19.038" y="1.67" class="h">onildoagu</text></svg><svg x="1360"><use xlink:href="#a"/><use xlink:href="#b" x="28.996"/><text y="1.67" class="f">➜</text><text x="3.006" y="1.67" class="g">development</text><text x="15.03" y="1.67" class="h">npx</text><text x="19.038" y="1.67" class="h">onildoagui</text></svg><svg x="1440"><use xlink:href="#a"/><use xlink:href="#b" x="29.996"/><text y="1.67" class="f">➜</text><text x="3.006" y="1.67" class="g">development</text><text x="15.03" y="1.67" class="h">npx</text><text x="19.038" y="1.67" class="h">onildoaguia</text></svg><svg x="1520"><use xlink:href="#a"/><use xlink:href="#b" x="30.996"/><text y="1.67" class="f">➜</text><text x="3.006" y="1.67" class="g">development</text><text x="15.03" y="1.67" class="h">npx</text><text x="19.038" y="1.67" class="h">onildoaguiar</text></svg><svg x="1600"><use xlink:href="#a"/><use xlink:href="#b" x="31.996"/><text y="1.67" class="f">➜</text><text x="3.006" y="1.67" class="g">development</text><text x="15.03" y="1.67" class="h">npx</text><text x="19.038" y="1.67" class="h">onildoaguiar-</text></svg><svg x="1680"><use xlink:href="#a"/><use xlink:href="#b" x="32.996"/><text y="1.67" class="f">➜</text><text x="3.006" y="1.67" class="g">development</text><text x="15.03" y="1.67" class="h">npx</text><text x="19.038" y="1.67" class="h">onildoaguiar-c</text></svg><svg x="1760"><use xlink:href="#a"/><use xlink:href="#b" x="33.996"/><text y="1.67" class="f">➜</text><text x="3.006" y="1.67" class="g">development</text><text x="15.03" y="1.67" class="h">npx</text><text x="19.038" y="1.67" class="h">onildoaguiar-ca</text></svg><svg x="1840"><use xlink:href="#a"/><use xlink:href="#b" x="34.996"/><text y="1.67" class="f">➜</text><text x="3.006" y="1.67" class="g">development</text><text x="15.03" y="1.67" class="h">npx</text><text x="19.038" y="1.67" class="h">onildoaguiar-car</text></svg><svg x="1920"><use xlink:href="#a"/><use xlink:href="#b" x="35.996"/><use xlink:href="#3"/></svg><svg x="2000"><use xlink:href="#a"/><use xlink:href="#b" x="35.996"/><use xlink:href="#3"/></svg><svg x="2080"><use xlink:href="#a"/><use xlink:href="#b" x="-.004" y="2.146"/><use xlink:href="#3"/></svg><svg x="2160"><use xlink:href="#a"/><use xlink:href="#b" x="-.004" y="2.146"/><use xlink:href="#3"/></svg><svg x="2240"><use xlink:href="#a"/><use xlink:href="#3"/></svg><svg x="2320"><use xlink:href="#a"/><use xlink:href="#3"/><text y="3.841" class="h">⸨</text><text x="1.002" y="3.841" class="i">░░░░░░░░░░░░░░░░░░</text><text x="19.038" y="3.841" class="h">⸩</text><text x="21.042" y="3.841" class="h">⠧</text><text x="23.046" y="3.841" class="h">rollbackFailedOptional:</text>0<text x="47.094" y="3.841" class="j">verb</text><text x="52.104" y="3.841" class="k">npm-session</text><text x="64.128" y="3.841" class="h">cf21750ce9ca751</text></svg><svg x="2400"><use xlink:href="#a"/><use xlink:href="#3"/><text y="3.841" class="h">⸨</text><text x="1.002" y="3.841" class="i">░░░░░░░░░░░░░░░░░░</text><text x="19.038" y="3.841" class="h">⸩</text><text x="21.042" y="3.841" class="h">⠋</text><text x="23.046" y="3.841" class="h">fetchMetadata:</text><path class="h" d="M38.076 2.171h4v2.171h-4z"/><text x="38.076" y="3.841" class="a">sill</text><text x="43.086" y="3.841" class="k">resolveWithNewModule</text><text x="64.128" y="3.841" class="h">boxen@2.1.0</text><text x="76.152" y="3.841" class="h">che</text></svg><svg x="2480"><use xlink:href="#a"/><use xlink:href="#3"/><text y="3.841" class="h">⸨</text><path class="h" d="M1.002 2.171h1v2.171h-1z"/><text x="1.002" y="3.841" class="a"></text><text x="2.004" y="3.841" class="i">░░░░░░░░░░░░░░░░░</text><text x="19.038" y="3.841" class="h">⸩</text><text x="21.042" y="3.841" class="h">⠦</text><text x="23.046" y="3.841" class="h">fetchMetadata:</text><path class="h" d="M38.076 2.171h4v2.171h-4z"/><text x="38.076" y="3.841" class="a">sill</text><text x="43.086" y="3.841" class="k">resolveWithNewModule</text><text x="64.128" y="3.841" class="h">color-name@1.1.</text></svg><svg x="2560"><use xlink:href="#a"/><use xlink:href="#3"/><text y="3.841" class="h">⸨</text><path class="h" d="M1.002 2.171h1v2.171h-1z"/><text x="1.002" y="3.841" class="a"></text><text x="2.004" y="3.841" class="i">░░░░░░░░░░░░░░░░░</text><text x="19.038" y="3.841" class="h">⸩</text><text x="21.042" y="3.841" class="h">⠙</text><text x="23.046" y="3.841" class="h">fetchMetadata:</text><path class="h" d="M38.076 2.171h4v2.171h-4z"/><text x="38.076" y="3.841" class="a">sill</text><text x="43.086" y="3.841" class="k">resolveWithNewModule</text><text x="64.128" y="3.841" class="h">shebang-regex@1</text></svg><svg x="2640"><use xlink:href="#a"/><use xlink:href="#3"/><use xlink:href="#4" y="2.171"/></svg><svg x="2720"><use xlink:href="#a"/><use xlink:href="#3"/><use xlink:href="#4" y="2.171"/></svg><svg x="2800"><use xlink:href="#a"/><use xlink:href="#3"/><use xlink:href="#4" y="2.171"/></svg><svg x="2880"><use xlink:href="#a"/><use xlink:href="#3"/><use xlink:href="#4" y="2.171"/></svg><svg x="2960"><use xlink:href="#a"/><use xlink:href="#3"/><use xlink:href="#4" y="2.171"/></svg><svg x="3040"><use xlink:href="#a"/><use xlink:href="#3"/><text y="3.841" class="h">⸨</text><path class="h" d="M1.002 2.171h10v2.171h-10z"/><text x="1.002" y="3.841" class="a"></text><text x="11.022" y="3.841" class="i">░░░░░░░░</text><text x="19.038" y="3.841" class="h">⸩</text><text x="21.042" y="3.841" class="h">⠹</text><text x="23.046" y="3.841" class="h">extract:is-stream:</text><path class="h" d="M42.084 2.171h4v2.171h-4z"/><text x="42.084" y="3.841" class="a">sill</text><text x="47.094" y="3.841" class="k">extract</text><text x="55.11" y="3.841" class="h">onildoaguiar-card@1.0.1</text></svg><svg x="3120"><use xlink:href="#a"/><use xlink:href="#3"/><text y="3.841" class="h">⸨</text><path class="h" d="M1.002 2.171h12v2.171h-12z"/><text x="1.002" y="3.841" class="a"></text><text x="13.026" y="3.841" class="i">░░░░░░</text><text x="19.038" y="3.841" class="h">⸩</text><text x="21.042" y="3.841" class="h">⠏</text><text x="23.046" y="3.841" class="h">finalize:npm-run-path:</text><path class="h" d="M46.092 2.171h4v2.171h-4z"/><text x="46.092" y="3.841" class="a">sill</text><text x="51.102" y="3.841" class="k">finalize</text><text x="60.12" y="3.841" class="h">/Users/onildoaguiar</text></svg><svg x="3200"><use xlink:href="#a"/><use xlink:href="#3"/><text y="3.841" class="h">⸨</text><path class="h" d="M1.002 2.171h12v2.171h-12z"/><text x="1.002" y="3.841" class="a"></text><text x="13.026" y="3.841" class="i">░░░░░░</text><text x="19.038" y="3.841" class="h">⸩</text><text x="21.042" y="3.841" class="h">⠹</text><text x="23.046" y="3.841" class="h">refresh-package-json:ansi-regex:</text><path class="h" d="M56.112 2.171h4v2.171h-4z"/><text x="56.112" y="3.841" class="a">sill</text><text x="61.122" y="3.841" class="k">finalize</text><text x="70.14" y="3.841" class="h">/Users/on</text></svg><svg x="3280"><use xlink:href="#a"/><use xlink:href="#b" x="-.004" y="2.146"/><use xlink:href="#3"/></svg><svg x="3360"><use xlink:href="#a"/><use xlink:href="#b" x="-.004" y="4.317"/><use xlink:href="#3"/><use xlink:href="#5" y="2.171"/></svg><svg x="3440"><use xlink:href="#a"/><use xlink:href="#b" x="-.004" y="28.198"/><use xlink:href="#3"/><use xlink:href="#5" y="2.171"/><use xlink:href="#6" y="6.513"/><use xlink:href="#7" y="8.684"/><use xlink:href="#8" y="10.855"/><use xlink:href="#7" y="13.026"/><use xlink:href="#9" y="15.197"/><use xlink:href="#10" y="17.368"/><use xlink:href="#11" y="19.539"/><use xlink:href="#12" y="21.71"/><use xlink:href="#13" y="23.881"/><use xlink:href="#14" y="26.052"/></svg><svg x="3520"><use xlink:href="#a"/><use xlink:href="#b" x="-.004" y="39.053"/><use xlink:href="#3"/><use xlink:href="#5" y="2.171"/><use xlink:href="#6" y="6.513"/><use xlink:href="#7" y="8.684"/><use xlink:href="#8" y="10.855"/><use xlink:href="#7" y="13.026"/><use xlink:href="#9" y="15.197"/><use xlink:href="#10" y="17.368"/><use xlink:href="#11" y="19.539"/><use xlink:href="#12" y="21.71"/><use xlink:href="#13" y="23.881"/><use xlink:href="#14" y="26.052"/><use xlink:href="#7" y="28.223"/><use xlink:href="#15" y="30.394"/><use xlink:href="#7" y="32.565"/><use xlink:href="#16" y="34.736"/></svg><svg x="3600"><use xlink:href="#a"/><use xlink:href="#b" x="-.004" y="39.053"/><use xlink:href="#3"/><use xlink:href="#5" y="2.171"/><use xlink:href="#6" y="6.513"/><use xlink:href="#7" y="8.684"/><use xlink:href="#8" y="10.855"/><use xlink:href="#7" y="13.026"/><use xlink:href="#9" y="15.197"/><use xlink:href="#10" y="17.368"/><use xlink:href="#11" y="19.539"/><use xlink:href="#12" y="21.71"/><use xlink:href="#13" y="23.881"/><use xlink:href="#14" y="26.052"/><use xlink:href="#7" y="28.223"/><use xlink:href="#15" y="30.394"/><use xlink:href="#7" y="32.565"/><use xlink:href="#16" y="34.736"/></svg><svg x="3680"><use xlink:href="#a"/><use xlink:href="#b" x="-.004" y="39.053"/><use xlink:href="#3"/><use xlink:href="#5" y="2.171"/><use xlink:href="#6" y="6.513"/><use xlink:href="#7" y="8.684"/><use xlink:href="#8" y="10.855"/><use xlink:href="#7" y="13.026"/><use xlink:href="#9" y="15.197"/><use xlink:href="#10" y="17.368"/><use xlink:href="#11" y="19.539"/><use xlink:href="#12" y="21.71"/><use xlink:href="#13" y="23.881"/><use xlink:href="#14" y="26.052"/><use xlink:href="#7" y="28.223"/><use xlink:href="#15" y="30.394"/><use xlink:href="#7" y="32.565"/><use xlink:href="#16" y="34.736"/></svg><svg x="3760"><use xlink:href="#a"/><use xlink:href="#b" x="14.996" y="39.053"/><use xlink:href="#3"/><use xlink:href="#5" y="2.171"/><use xlink:href="#6" y="6.513"/><use xlink:href="#7" y="8.684"/><use xlink:href="#8" y="10.855"/><use xlink:href="#7" y="13.026"/><use xlink:href="#9" y="15.197"/><use xlink:href="#10" y="17.368"/><use xlink:href="#11" y="19.539"/><use xlink:href="#12" y="21.71"/><use xlink:href="#13" y="23.881"/><use xlink:href="#14" y="26.052"/><use xlink:href="#7" y="28.223"/><use xlink:href="#15" y="30.394"/><use xlink:href="#7" y="32.565"/><use xlink:href="#16" y="34.736"/><use xlink:href="#1" y="39.078"/></svg><svg x="3840"><use xlink:href="#a"/><use xlink:href="#b" x="14.996" y="39.053"/><use xlink:href="#3"/><use xlink:href="#5" y="2.171"/><use xlink:href="#6" y="6.513"/><use xlink:href="#7" y="8.684"/><use xlink:href="#8" y="10.855"/><use xlink:href="#7" y="13.026"/><use xlink:href="#9" y="15.197"/><use xlink:href="#10" y="17.368"/><use xlink:href="#11" y="19.539"/><use xlink:href="#12" y="21.71"/><use xlink:href="#13" y="23.881"/><use xlink:href="#14" y="26.052"/><use xlink:href="#7" y="28.223"/><use xlink:href="#15" y="30.394"/><use xlink:href="#7" y="32.565"/><use xlink:href="#16" y="34.736"/><use xlink:href="#1" y="39.078"/></svg><svg x="3920"><use xlink:href="#a"/><use xlink:href="#b" x="-.004" y="41.224"/><use xlink:href="#3"/><use xlink:href="#5" y="2.171"/><use xlink:href="#6" y="6.513"/><use xlink:href="#7" y="8.684"/><use xlink:href="#8" y="10.855"/><use xlink:href="#7" y="13.026"/><use xlink:href="#9" y="15.197"/><use xlink:href="#10" y="17.368"/><use xlink:href="#11" y="19.539"/><use xlink:href="#12" y="21.71"/><use xlink:href="#13" y="23.881"/><use xlink:href="#14" y="26.052"/><use xlink:href="#7" y="28.223"/><use xlink:href="#15" y="30.394"/><use xlink:href="#7" y="32.565"/><use xlink:href="#16" y="34.736"/><use xlink:href="#1" y="39.078"/></svg></svg></g></g></svg></svg>